<svg width="163" height="24" viewBox="0 0 163 24" fill="none" xmlns="http://www.w3.org/2000/svg">
<path d="M10.2009 23.9173C8.27896 23.9173 6.53262 23.4968 4.96183 22.6556C3.40953 21.7962 2.18986 20.6259 1.30283 19.1448C0.434276 17.6637 0 15.9997 0 14.1529C0 12.3061 0.434276 10.6421 1.30283 9.16099C2.18986 7.67987 3.40953 6.51875 4.96183 5.67762C6.53262 4.81821 8.27896 4.3885 10.2009 4.3885C12.1228 4.3885 13.8506 4.80906 15.3845 5.65019C16.9368 6.49132 18.1564 7.66159 19.0435 9.16099C19.9305 10.6421 20.374 12.3061 20.374 14.1529C20.374 15.9997 19.9305 17.6729 19.0435 19.1723C18.1564 20.6534 16.9368 21.8145 15.3845 22.6556C13.8506 23.4968 12.1228 23.9173 10.2009 23.9173ZM10.2009 22.1071C11.7347 22.1071 13.1207 21.7688 14.3588 21.0922C15.597 20.3974 16.5672 19.4465 17.2694 18.2397C17.9716 17.0146 18.3228 15.6523 18.3228 14.1529C18.3228 12.6535 17.9716 11.3004 17.2694 10.0935C16.5672 8.86843 15.597 7.91759 14.3588 7.24102C13.1207 6.54618 11.7347 6.19876 10.2009 6.19876C8.66704 6.19876 7.27181 6.54618 6.01519 7.24102C4.77704 7.91759 3.79761 8.86843 3.07689 10.0935C2.37466 11.3004 2.02354 12.6535 2.02354 14.1529C2.02354 15.6523 2.37466 17.0146 3.07689 18.2397C3.79761 19.4465 4.77704 20.3974 6.01519 21.0922C7.27181 21.7688 8.66704 22.1071 10.2009 22.1071ZM7.73381 2.35882C7.40117 2.35882 7.11474 2.24911 6.8745 2.02968C6.65274 1.81026 6.54186 1.52683 6.54186 1.17941C6.54186 0.850273 6.65274 0.575991 6.8745 0.356566C7.11474 0.118855 7.40117 0 7.73381 0C8.04797 0 8.32516 0.118855 8.5654 0.356566C8.80564 0.575991 8.92576 0.850273 8.92576 1.17941C8.92576 1.50855 8.80564 1.79197 8.5654 2.02968C8.34365 2.24911 8.06645 2.35882 7.73381 2.35882ZM12.6679 2.35882C12.3353 2.35882 12.0489 2.24911 11.8086 2.02968C11.5869 1.79197 11.476 1.50855 11.476 1.17941C11.476 0.850273 11.5961 0.575991 11.8363 0.356566C12.0766 0.118855 12.3538 0 12.6679 0C13.0006 0 13.2778 0.118855 13.4995 0.356566C13.7398 0.575991 13.8599 0.850273 13.8599 1.17941C13.8599 1.52683 13.7398 1.81026 13.4995 2.02968C13.2778 2.24911 13.0006 2.35882 12.6679 2.35882Z" fill="white"/>
<path d="M37.8182 23.7531L33.4617 17.5946C32.9716 17.6494 32.4633 17.6767 31.9369 17.6767H26.818V23.7531H24.8032V4.59336H31.9369C34.3693 4.59336 36.2752 5.17728 37.6548 6.34511C39.0344 7.51294 39.7241 9.11871 39.7241 11.1624C39.7241 12.6587 39.3429 13.9269 38.5806 14.967C37.8363 15.9888 36.7654 16.7279 35.3676 17.184L40.0236 23.7531H37.8182ZM31.8825 15.9524C33.7703 15.9524 35.2134 15.5327 36.2117 14.6933C37.2101 13.8539 37.7093 12.6769 37.7093 11.1624C37.7093 9.61139 37.2101 8.42531 36.2117 7.60418C35.2134 6.7648 33.7703 6.34511 31.8825 6.34511H26.818V15.9524H31.8825Z" fill="white"/>
<path d="M57.9031 14.1732H59.8363V21.4813C58.9468 22.2659 57.894 22.8681 56.6778 23.2878C55.4617 23.7075 54.1819 23.9173 52.8387 23.9173C50.9327 23.9173 49.2174 23.4976 47.6926 22.6583C46.1678 21.8189 44.9698 20.6602 44.0985 19.1821C43.2272 17.6859 42.7915 16.0162 42.7915 14.1732C42.7915 12.3302 43.2272 10.6697 44.0985 9.1917C44.9698 7.69542 46.1678 6.52759 47.6926 5.68821C49.2174 4.84883 50.9418 4.42914 52.8659 4.42914C54.3181 4.42914 55.6523 4.66635 56.8684 5.14079C58.0846 5.59697 59.1102 6.28125 59.9452 7.19361L58.6927 8.48005C57.1861 6.98377 55.2711 6.23563 52.9476 6.23563C51.4047 6.23563 50.007 6.58233 48.7545 7.27573C47.5201 7.95088 46.549 8.89974 45.8411 10.1223C45.1332 11.3266 44.7792 12.6769 44.7792 14.1732C44.7792 15.6695 45.1332 17.0198 45.8411 18.2241C46.549 19.4285 47.5201 20.3773 48.7545 21.0707C49.9888 21.7641 51.3774 22.1108 52.9204 22.1108C54.8808 22.1108 56.5417 21.6182 57.9031 20.6328V14.1732Z" fill="white"/>
<path d="M77.492 18.6347H66.873L64.5859 23.7531H62.4893L71.2023 4.59336H73.19L81.9029 23.7531H79.7791L77.492 18.6347ZM76.7568 16.9925L72.1825 6.70094L67.6082 16.9925H76.7568Z" fill="white"/>
<path d="M100.984 4.59336V23.7531H99.3233L87.0707 8.20634V23.7531H85.0559V4.59336H86.7168L98.9966 20.1401V4.59336H100.984Z" fill="white"/>
<path d="M119.745 18.7112H108.974L106.654 23.9173H104.528L113.365 4.42914H115.382L124.219 23.9173H122.065L119.745 18.7112ZM119 17.0408L114.36 6.57284L109.72 17.0408H119Z" fill="white"/>
<path d="M134.654 4.42914C137.121 4.42914 139.054 5.02306 140.453 6.21092C141.853 7.39877 142.552 9.03206 142.552 11.1108C142.552 13.1895 141.853 14.8228 140.453 16.0107C139.054 17.18 137.121 17.7646 134.654 17.7646H129.461V23.9173H127.418V4.42914H134.654ZM134.598 15.955C136.513 15.955 137.977 15.5374 138.99 14.7022C140.002 13.8484 140.509 12.6513 140.509 11.1108C140.509 9.53319 140.002 8.32678 138.99 7.49157C137.977 6.6378 136.513 6.21092 134.598 6.21092H129.461V15.955H134.598Z" fill="white"/>
<path d="M154.207 4.42914C156.675 4.42914 158.608 5.02306 160.007 6.21092C161.407 7.39877 162.106 9.03206 162.106 11.1108C162.106 13.1895 161.407 14.8228 160.007 16.0107C158.608 17.18 156.675 17.7646 154.207 17.7646H149.015V23.9173H146.972V4.42914H154.207ZM154.152 15.955C156.067 15.955 157.531 15.5374 158.544 14.7022C159.556 13.8484 160.063 12.6513 160.063 11.1108C160.063 9.53319 159.556 8.32678 158.544 7.49157C157.531 6.6378 156.067 6.21092 154.152 6.21092H149.015V15.955H154.152Z" fill="white"/>
</svg>
